<?xml version="1.0" encoding="utf-8"?>
<svg version="1.1" id="Lager_1" xmlns="http://www.w3.org/2000/svg" xmlns:xlink="http://www.w3.org/1999/xlink" x="0px" y="0px"
	 viewBox="0 0 800 200" style="enable-background:new 0 0 800 200;" xml:space="preserve">

<g id="entry">
    <path id="XMLID_6_" fill="#70C1B3" d="M85.8,137.5c0,25.1-16.6,38.9-40.4,38.9C21.5,176.3,5,159.8,5,137.5V89.3
    	C5,65.2,21,47.4,47.4,47.4c21.8,0,38.4,14.5,38.4,33.6v22.3c0,4.3-2.3,8.5-8.5,9.8l-57.7,10.8c0,4.3,0,13.5,0,13.5
    	c0.8,14.1,9.8,24.8,25.8,24.8c16.3,0,26.1-9.5,26.1-24.8c0-1.3,1.5-1.8,1.5-1.8h11.5C84.5,135.7,85.8,136.2,85.8,137.5z M71.2,81.5
    	c0-13-10.3-20.1-25.1-20.1c-19.6,0-26.6,12.5-26.6,27.8v20.3l51.7-9.8V81.5z"/>
    <path id="XMLID_5_" fill="#70C1B3" d="M94.5,51.7c0-2.5,2.3-2.5,2.3-2.5h10c0,0,2.3,0,2.3,2.5v7.3c5.8-8,15.8-11.5,26.6-11.5
    	c22.6,0,39.4,14.8,39.4,42.6v82c0,2.5-2.5,2.5-2.5,2.5H163c0,0-2.5,0-2.5-2.5V90c0-16.3-7-28.6-25.6-28.6
    	c-20.1,0-25.8,15.3-25.8,28.6v82c0,2.5-2.8,2.5-2.8,2.5H97c0,0-2.5,0-2.5-2.5L94.5,51.7L94.5,51.7z"/>
    <path id="XMLID_4_" fill="#70C1B3" d="M231.3,174.6c-24.8,0-38.6-10-38.6-38.1v-71h-10.8c-2.5,0-2.5-2.3-2.5-2.3v-9.3
    	c0,0,0-2.5,2.5-2.5h10.8V6.5c0-2.5,2.3-2.5,2.3-2.5h9.8c0,0,2.5,0,2.5,2.5v44.9h26.3c2.5,0,2.5,2.3,2.5,2.3V63c0,0,0,2.5-2.5,2.5
    	h-26.3v71c0,19.8,7.3,23.8,24.1,24.1h1.5c2.5,0,2.5,2.3,2.5,2.3v9.3c0,0,0,2.5-2.5,2.5H231.3z"/>
    <path id="XMLID_3_" fill="#70C1B3" d="M259.6,90.8v81.3c0,2.5-2.8,2.5-2.8,2.5h-9.3c0,0-2.5,0-2.5-2.5V51.7c0-2.5,2.5-2.5,2.5-2.5h9.3
    	c0,0,2.8,0,2.8,2.5v7.3c5.3-9,18.1-11.5,27.1-11.5c2.5,0,2.5,2.5,2.5,2.5v9.3c0,0,0,2.8-2.5,2.8C267.9,61.9,259.6,72,259.6,90.8z"/>
    <path id="XMLID_2_" fill="#70C1B3" d="M378.7,50H368c0,0-2,0-2.5,2.3L338.1,143l-27.8-90.7c-0.5-2.3-2.5-2.3-2.5-2.3H297
    	c0,0-2.8,0-1.8,2.3l34.9,108.9c0.1,0.7,0.5,1.1,0.8,1.5c-1.4,15-8.8,18.3-23.8,18.5h-1.5c-2.5,0-2.5,2.3-2.5,2.3v9.3
    	c0,0,0,2.5,2.5,2.5h1.5c23.1,0,36.6-8.7,38.4-32.6c0.3-0.3,0.6-0.8,0.7-1.4l34.4-108.9C381.5,50,378.7,50,378.7,50z"/>
</g>
<g id="event">
	<path id="XMLID_16_" fill="#FFFFFF" d="M473.4,137.8c0,25.1-16.6,38.9-40.4,38.9c-23.8,0-40.4-16.6-40.4-38.9V89.7
		c0-24.1,16-41.9,42.4-41.9c21.8,0,38.4,14.6,38.4,33.6v22.3c0,4.3-2.3,8.5-8.5,9.8l-57.7,10.8c0,4.3,0,13.5,0,13.5
		c0.8,14.1,9.8,24.8,25.8,24.8c16.3,0,26.1-9.5,26.1-24.8c0-1.3,1.5-1.8,1.5-1.8h11.5C472.2,136.1,473.4,136.6,473.4,137.8z
		 M458.9,81.9c0-13-10.3-20.1-25.1-20.1c-19.6,0-26.6,12.5-26.6,27.8V110l51.7-9.8L458.9,81.9L458.9,81.9z"/>
	<path id="XMLID_15_" fill="#FFFFFF" d="M510.8,175c0,0-2,0-2.5-2.5L473.4,52c-1-2.5,1.8-2.5,1.8-2.5H486c0,0,2,0,2.5,2.5l27.8,100.3
		L543.7,52c0.5-2.5,2.5-2.5,2.5-2.5h10.8c0,0,2.8,0,1.8,2.5l-34.4,120.4c-0.5,2.5-2.5,2.5-2.5,2.5L510.8,175L510.8,175z"/>
	<path id="XMLID_12_" fill="#FFFFFF" d="M640.7,137.8c0,25.1-16.6,38.9-40.4,38.9c-23.8,0-40.4-16.6-40.4-38.9V89.7
		c0-24.1,16.1-41.9,42.4-41.9c21.8,0,38.4,14.6,38.4,33.6v22.3c0,4.3-2.3,8.5-8.5,9.8l-57.7,10.8c0,4.3,0,13.5,0,13.5
		c0.7,14.1,9.8,24.8,25.8,24.8c16.3,0,26.1-9.5,26.1-24.8c0-1.3,1.5-1.8,1.5-1.8h11.5C639.5,136.1,640.7,136.6,640.7,137.8z
		 M626.2,81.9c0-13-10.3-20.1-25.1-20.1c-19.6,0-26.6,12.5-26.6,27.8V110l51.7-9.8L626.2,81.9L626.2,81.9z"/>
	<path id="XMLID_11_" fill="#FFFFFF" d="M654.5,52c0-2.5,2.3-2.5,2.3-2.5h10c0,0,2.3,0,2.3,2.5v7.3c5.8-8,15.8-11.5,26.6-11.5
		c22.6,0,39.4,14.8,39.4,42.6v82c0,2.5-2.5,2.5-2.5,2.5H723c0,0-2.5,0-2.5-2.5v-82c0-16.3-7-28.6-25.6-28.6
		c-20.1,0-25.8,15.3-25.8,28.6v82c0,2.5-2.8,2.5-2.8,2.5H657c0,0-2.5,0-2.5-2.5V52z"/>
	<path id="XMLID_10_" fill="#FFFFFF" d="M791.2,175c-24.8,0-38.6-10-38.6-38.1v-71h-10.8c-2.5,0-2.5-2.3-2.5-2.3v-9.3
		c0,0,0-2.5,2.5-2.5h10.8V6.9c0-2.5,2.3-2.5,2.3-2.5h9.8c0,0,2.5,0,2.5,2.5v44.9h26.3c2.5,0,2.5,2.3,2.5,2.3v9.3c0,0,0,2.5-2.5,2.5
		h-26.3v71c0,19.8,7.3,23.8,24.1,24.1h1.5c2.5,0,2.5,2.3,2.5,2.3v9.3c0,0,0,2.5-2.5,2.5H791.2z"/>
</g>
</svg>